PathFileType	4	(X/Y/Z)	C:/Users/beibeiliu/ov580/test_trc/User3\sequence.23_training_dense_left.trc
DataRate	CameraRate	NumFrames	NumMarkers	Units	OrigDataRate	OrigDataStartFrame	OrigNumFrames
120	120	23	19	mm	120	61	91
Frame#	Time	ThumbCMC			ThumbMCP			ThumbIP			ThumbTip			IndexMCP			IndexPIP			IndexTip			MiddleMCP			MiddlePIP			MiddleTip			RingMCP			RingPIP			RingTip			PinkyMCP			PinkyPIP			PinkyTip			BackHand1			BackHand2			BackHand3	
		X0	Y0	Z0	X1	Y1	Z1	X2	Y2	Z2	X3	Y3	Z3	X4	Y4	Z4	X5	Y5	Z5	X6	Y6	Z6	X7	Y7	Z7	X8	Y8	Z8	X9	Y9	Z9	X10	Y10	Z10	X11	Y11	Z11	X12	Y12	Z12	X13	Y13	Z13	X14	Y14	Z14	X15	Y15	Z15	X16	Y16	Z16	X17	Y17	Z17	X18	Y18	Z18	
60	0.5	-223.774	-29.0101	5.85419	-228.092	-36.0116	-21.4912	-240.759	-42.4671	-51.6712	-247.427	-43.9797	-68.324	-215.992	-77.9134	-54.3714	-202.968	-72.1475	-80.3615	-184.178	-60.4449	-102.056	-200.653	-89.101	-56.5302	-187.407	-82.5034	-78.0966	-170.97	-67.0011	-107.847	-180.858	-94.5408	-44.5815	-167.332	-88.559	-66.9937	-156.498	-77.9188	-87.2946	-167.82	-96.041	-29.2279	-155.464	-93.3207	-49.6763	-145.691	-89.4381	-69.5774	-197.708	-91.2644	10.0302	-195.957	-73.6941	40.1597	-219.719	-66.6121	15.2126	
61	0.508333	-229.134	-22.0159	9.30272	-238.145	-23.8938	-17.4468	-251.766	-23.7436	-43.2662	-262.798	-20.7153	-62.6111	-249.892	-70.1563	-47.1794	-238.534	-70.7427	-75.4542	-223.629	-65.982	-98.4362	-241.833	-85.146	-51.915	-228.806	-85.5565	-77.1877	-212.512	-80.6959	-104.696	-226.798	-100.451	-38.5521	-218.036	-98.9421	-64.4576	-201.353	-98.914	-87.5753	-215.174	-109.243	-28.3471	-208.058	-108.172	-49.9019	-200.028	-105.942	-69.7344	-234.497	-89.937	15.2635	-223.491	-76.0865	41.4946	-246.31	-51.4671	22.7631	
62	0.516667	-223.694	-12.3756	12.2075	-236.003	-7.58276	-16.5267	-244.746	-0.213601	-38.5161	-255.105	8.56484	-59.7832	-269.301	-38.068	-48.8404	-262.128	-42.5032	-73.0292	-247.072	-52.0949	-97.4077	-271.598	-55.3915	-48.2523	-261.212	-59.6147	-77.0553	-248.395	-68.8773	-102.455	-267.321	-76.2243	-39.7342	-261.328	-78.3075	-62.8849	-247.218	-87.1761	-88.7449	-262.731	-88.9442	-26.2271	-257.403	-93.3892	-48.7982	-251.27	-97.2157	-71.9184	-265.173	-61.8906	21.3223	-248.385	-58.368	43.1462	-254.555	-29.499	23.7232	
63	0.525	-213.976	-5.17322	12.1803	-217.942	8.20063	-13.7269	-223.338	21.3085	-37.4092	-226.318	32.7891	-58.0546	-263.19	0.637736	-48.5897	-258.848	-7.21621	-76.5159	-250.575	-18.1425	-100.197	-276.061	-15.2755	-51.2002	-269.572	-20.5221	-75.9329	-258.66	-31.3371	-106.209	-282.179	-32.8185	-39.1974	-277.794	-39.0392	-67.0561	-271.508	-51.7842	-90.3235	-284.227	-47.2775	-27.1063	-283.544	-55.6021	-50.9928	-276.993	-57.8401	-75.1933	-273.285	-26.179	17.259	-261.019	-37.3327	44.4171	-249.72	-2.69392	22.314	
64	0.533333	-198.153	1.45096	9.68996	-189.381	14.114	-13.876	-187.705	34.3942	-41.4473	-185.306	41.4397	-58.1336	-235.617	26.704	-55.132	-231.692	19.1391	-82.5483	-225.604	9.2377	-102.662	-250.782	20.1732	-56.7709	-247.818	10.0416	-84.5359	-241.909	-2.92961	-113.074	-268.036	2.7769	-49.4522	-264.582	-3.01962	-73.1952	-258.438	-15.2584	-98.9869	-273.275	-9.60478	-37.298	-274.948	-15.6963	-60.5932	-274.727	-23.7824	-82.034	-260.793	3.72006	10.6353	-251.255	-11.0555	35.3454	-227.014	14.2121	17.4859	
65	0.541667	-167.822	3.44913	5.09047	-155.02	16.6538	-20.5268	-144.201	25.1265	-41.1493	-135.582	35.4529	-59.9237	-189.518	37.5488	-59.2515	-188.152	26.0559	-88.4433	-185.307	13.6961	-112.781	-207.636	33.3581	-66.8507	-207.893	21.4121	-92.6349	-205.031	8.84603	-117.93	-225.281	22.8134	-61.1997	-225.191	13.7053	-85.5147	-225.19	1.00081	-108.559	-240.565	13.118	-52.1847	-244.618	5.03297	-72.0819	-238.506	1.34525	-94.4392	-227.466	22.6243	0.679355	-228.836	11.1835	24.3542	-196.549	24.995	11.4993	
66	0.55	-142.805	-1.85153	1.311	-126.586	4.67667	-20.7005	-113.845	13.7316	-45.7439	-100.312	18.4234	-62.029	-155.747	29.4205	-66.3118	-154.201	16.5826	-92.8705	-152.958	1.19072	-115.725	-177.516	27.0765	-75.4744	-172.092	15.9868	-95.4578	-172.08	-3.75243	-124.906	-196.451	20.4084	-69.5146	-198.247	10.5662	-91.6893	-194.859	-1.91014	-112.046	-215.011	16.4284	-56.6491	-213.346	7.81757	-78.7181	-215.509	-2.2697	-100.676	-198.943	28.6326	-7.53513	-203.075	16.1016	15.739	-168.05	25.1649	5.03307	
67	0.558333	-126.616	-10.4688	0.45456	-112.173	-10.5109	-22.5059	-94.9113	-5.37829	-47.9274	-85.3145	-3.43738	-66.7234	-140.594	11.6746	-71.283	-137.411	-4.53187	-94.0697	-137.221	-22.942	-114.113	-160.23	10.5563	-77.4465	-158.102	-6.47953	-100.072	-158.61	-27.0141	-121.974	-179.221	7.47414	-72.3796	-179.668	-8.59819	-94.8344	-178.698	-25.6131	-113.383	-197.653	4.96534	-64.6564	-198.272	-7.21807	-84.0879	-195.066	-22.7819	-102.886	-181.842	24.7053	-13.4179	-184.197	14.1765	11.0456	-150.093	17.8616	-0.716385	
68	0.566667	-117.273	-22.9805	2.44802	-102.043	-27.7841	-21.4424	-89.857	-28.4344	-44.8645	-74.9517	-31.7629	-63.1547	-129.372	-11.942	-74.9603	-130.787	-34.423	-96.1954	-136.205	-56.5207	-105.655	-150.733	-10.3431	-79.3184	-151.811	-31.1586	-95.8955	-150.657	-59.7119	-111.995	-168.399	-10.4728	-71.2862	-171.985	-31.5797	-90.1223	-176.322	-54.4984	-102.185	-190.853	-11.2447	-62.9795	-188.562	-28.5726	-80.418	-185.525	-49.0351	-91.8365	-169.129	14.1276	-20.6121	-174.952	10.8683	10.1963	-140.128	7.0851	-5.25947	
69	0.575	-115.674	-29.5296	5.14873	-99.5018	-38.2781	-20.9493	-83.1969	-43.9419	-42.9834	-70.4092	-51.3157	-57.1788	-121.853	-34.0482	-73.3063	-126.392	-62.5392	-86.8088	-131.726	-88.7436	-84.263	-147.937	-36.3614	-78.2152	-148.907	-59.695	-89.1058	-148.687	-96.444	-91.265	-168.741	-34.2066	-69.007	-171.048	-57.9327	-81.3054	-168.024	-87.9129	-80.5334	-187.682	-34.0093	-60.173	-185.01	-55.9347	-70.853	-183.098	-79.8503	-71.6729	-167.088	2.71407	-20.1891	-170.779	2.71543	11.0686	-135.295	-1.61526	-6.79622	
70	0.583333	-112.14	-23.6235	5.58614	-102.355	-36.3431	-17.0776	-82.4556	-43.8672	-39.3743	-68.3779	-49.7698	-54.1879	-121.005	-47.0654	-68.5373	-115.462	-75.062	-73.3635	-119.491	-104.318	-53.0945	-142.919	-52.9778	-69.5064	-140.718	-82.9696	-73.7037	-130.538	-114.169	-58.6377	-167.097	-55.7773	-61.1444	-158.579	-87.938	-63.3115	-150.518	-112.101	-43.5269	-185.219	-60.3955	-50.913	-180.781	-83.548	-52.0926	-161.491	-104.344	-41.7853	-173.631	-11.2967	-24.5893	-170.781	-3.64344	7.27677	-140.04	-3.71538	-9.53446	
71	0.591667	-119.411	-9.34415	0.148811	-102.411	-20.0788	-14.4685	-86.8026	-27.9739	-38.613	-68.2324	-31.015	-52.2327	-124.331	-51.2357	-61.5002	-106.418	-77.8146	-57.1179	-99.7364	-93.9767	-30.4544	-139.967	-61.3189	-62.0202	-122.344	-87.7973	-58.5183	-105.653	-111.608	-32.2303	-155.596	-71.5256	-50.9726	-143.339	-94.3797	-46.6582	-124.559	-109.022	-18.439	-176.499	-74.1929	-36.1533	-159.104	-97.0132	-35.6489	-136.165	-108.463	-21.6145	-180.1	-24.6165	-24.3198	-183.333	-10.289	4.71696	-149.734	-1.39036	-15.1218	
72	0.6	-131.04	8.00009	1.1265	-111.963	-0.637895	-18.4019	-92.2729	-2.14983	-41.296	-78.566	-5.16636	-56.2486	-121.933	-42.6975	-58.9154	-98.9086	-61.4563	-53.8422	-81.443	-70.7542	-31.2036	-132.818	-61.7657	-55.2571	-108.79	-80.3107	-48.4006	-85.021	-91.8629	-28.6002	-146.082	-72.2796	-42.675	-121.722	-88.6149	-36.9902	-98.408	-92.5849	-14.73	-160.806	-77.1904	-29.8915	-140.663	-95.0428	-26.1458	-115.605	-101.042	-12.9077	-186.179	-31.6852	-19.4268	-191.291	-14.2324	7.98591	-165.586	-0.74871	-14.4232	
73	0.608333	-147.083	18.381	-1.76967	-127.297	13.1098	-25.0158	-107.076	15.7926	-49.0954	-92.5364	22.5901	-58.9796	-122.967	-26.323	-58.7133	-93.1329	-35.8716	-55.6119	-71.5666	-46.7512	-36.8074	-126.966	-46.7139	-53.3683	-101.803	-57.4642	-48.9411	-68.1339	-65.3559	-34.2468	-136.798	-61.2144	-40.9562	-107.056	-70.1995	-35.9145	-81.403	-73.1634	-20.3148	-144.294	-75.2245	-26.9084	-122.71	-84.4923	-21.3819	-96.1114	-80.3343	-16.8678	-182.705	-34.5544	-20.8185	-194.907	-25.8626	6.48539	-175.456	-1.7985	-17.2259	
74	0.616667	-161.318	22.0112	-4.6064	-141.955	28.4847	-27.8945	-125.209	31.8698	-53.8687	-115.348	43.8127	-64.2812	-126.271	-13.162	-60.0865	-97.768	-15.0242	-59.3702	-70.8368	-13.6508	-50.225	-121.911	-32.993	-55.2405	-96.465	-34.4829	-51.814	-65.365	-30.7317	-47.6879	-129.386	-47.481	-41.4196	-98.4488	-51.868	-38.8242	-76.6601	-48.8536	-32.2979	-132.119	-65.4956	-24.108	-112.293	-64.4721	-24.0408	-86.154	-60.5474	-23.1832	-179.971	-39.5052	-14.5628	-194.946	-25.9849	7.86557	-183.309	-1.5702	-16.7475	
75	0.625	-175.158	25.6987	-8.00438	-158.614	31.4945	-30.822	-149.586	42.165	-55.3047	-142.214	53.8138	-69.2949	-133.132	-4.41987	-63.6363	-104.351	3.88794	-65.0211	-81.0831	13.9303	-63.9528	-124.875	-19.2258	-58.7552	-98.6661	-13.8113	-58.4929	-66.2686	-2.19222	-58.1945	-121.514	-36.6038	-42.2112	-98.4797	-28.4329	-46.4582	-68.856	-22.6083	-44.1523	-124.149	-49.3614	-27.1915	-102.116	-47.1509	-27.865	-80.0124	-37.8549	-34.1454	-173.479	-38.7118	-20.5518	-191.057	-31.7855	10.5631	-190.446	-8.34858	-14.1222	
76	0.633333	-189.626	19.0775	-11.2323	-180.34	28.7178	-33.5541	-173.045	34.5094	-60.9887	-175.085	49.7897	-76.3025	-150.353	1.57119	-69.4825	-125.543	15.3279	-77.0101	-102.287	24.9139	-77.8881	-131.81	-13.2508	-64.6789	-109.281	-2.18825	-68.4889	-86.3401	16.8399	-74.14	-126.962	-26.5134	-49.6565	-101.227	-17.0739	-54.4177	-80.8475	-5.13341	-57.2168	-118.7	-40.9036	-32.5238	-102.12	-32.79	-36.8985	-80.5218	-21.1648	-48.1133	-171.383	-42.4264	-14.3183	-182.828	-43.4598	11.016	-193.361	-19.0412	-16.3716	
77	0.641667	-202.749	2.95858	-7.2067	-199.68	9.90224	-35.985	-202.461	18.2557	-64.5361	-206.744	26.5847	-80.0396	-168.587	-14.8502	-72.8897	-150.57	2.7866	-87.7672	-130.051	18.5278	-96.1761	-151.787	-23.4322	-70.9648	-134.525	-7.82706	-80.9521	-111.499	12.7925	-91.23	-137.057	-32.5432	-55.6859	-116.675	-18.8584	-67.087	-98.7082	-2.18126	-77.659	-127.793	-41.0629	-41.0918	-112.39	-30.3493	-50.9051	-100.28	-18.1703	-61.9452	-172.923	-54.8497	-12.718	-180.89	-49.2195	17.3649	-199.799	-34.1055	-11.1649	
78	0.65	-219.699	-12.7146	-4.33509	-219.566	-14.4136	-34.9411	-225.996	-12.7111	-61.032	-232.516	-10.3274	-80.6541	-192.021	-42.3033	-72.0271	-182.275	-29.3467	-91.7677	-166.367	-13.9753	-106.305	-172.26	-53.6954	-67.0578	-158.681	-35.5928	-91.153	-146.075	-16.0595	-109.031	-158.153	-56.5925	-54.9522	-140.302	-44.4401	-74.7257	-128.94	-29.3399	-89.8391	-145.255	-59.0164	-38.6005	-131.763	-49.0893	-59.8524	-121.865	-39.7153	-75.6105	-182.048	-64.8664	-2.89866	-184.369	-57.7392	23.4994	-211.257	-47.6579	-1.0739	
79	0.658333	-228.097	-30.4212	2.57335	-235.589	-34.9272	-24.8857	-249.043	-39.1654	-51.1484	-257.422	-40.2799	-68.6128	-217.957	-74.376	-57.7062	-208.13	-64.8781	-86.605	-200.566	-53.516	-104.958	-198.886	-84.54	-58.885	-193.541	-75.0628	-83.4839	-179.528	-60.9967	-109.403	-182.547	-86.1162	-52.4979	-170.401	-80.3932	-72.5883	-163.106	-69.7894	-94.7516	-166.691	-86.9232	-35.445	-157.708	-84.4385	-55.2769	-151.955	-76.6788	-76.9507	-192.18	-82.4188	9.54779	-193.487	-71.0554	33.5309	-222.565	-65.112	13.5196	
80	0.666667	-233.722	-36.8511	12.4531	-247.206	-38.2174	-12.4796	-262.205	-49.0193	-36.3598	-272.503	-47.9575	-53.2101	-250.302	-86.3098	-45.6203	-243.317	-82.2651	-73.2731	-235.076	-71.3506	-96.1765	-235.791	-100.929	-44.6274	-231.141	-98.1215	-73.5114	-222.638	-88.0249	-101.021	-220.17	-105.462	-36.8638	-215.395	-105.485	-61.2362	-206.863	-99.4945	-90.6868	-199.464	-112.599	-28.7067	-199.729	-109.388	-47.3585	-193.942	-109.4	-71.4606	-216.245	-100.143	18.7134	-208.001	-78.966	42.7622	-237.169	-68.1547	27.8256	
81	0.675	-233.837	-23.7926	19.824	-249.067	-23.9032	-5.60461	-268.205	-22.434	-27.252	-277.133	-17.9117	-43.6225	-277.112	-61.436	-32.0147	-273.737	-64.2505	-59.2005	-261.958	-63.3204	-86.2675	-273.099	-79.0071	-35.2111	-270.865	-78.5038	-63.2579	-259.427	-81.9157	-93.0402	-258.645	-96.0669	-27.7252	-256.867	-99.863	-52.224	-250.731	-96.5145	-83.5058	-246.583	-105.077	-21.4308	-246.367	-107.15	-41.3076	-242.095	-111.319	-66.1961	-246.83	-90.8296	28.4618	-227.92	-82.6035	49.1679	-250.212	-54.5234	35.185	
82	0.683333	-222.367	-11.4134	23.6535	-232.243	-3.20855	1.12106	-250.333	10.8882	-22.9461	-259.579	20.0157	-38.4909	-279.441	-18.1443	-29.2751	-277.35	-19.539	-55.7901	-270.371	-26.681	-81.0443	-284.042	-38.4367	-29.0338	-281.34	-38.9054	-62.3548	-273.983	-43.8194	-91.7922	-280.007	-58.9348	-27.0655	-278.865	-63.7794	-51.1624	-272.946	-61.294	-79.0763	-272.702	-76.4241	-15.616	-275.021	-78.42	-39.3125	-272.6	-80.5558	-62.0729	-268.006	-58.1859	28.546	-245.7	-61.8884	51.8903	-250.45	-30.6551	40.8055	
